<svg width="934" height="934" viewBox="0 0 934 934" fill="none" xmlns="http://www.w3.org/2000/svg">
<path d="M456.213 49.2812H477.12V117.229H456.213V49.2812Z" fill="black"/>
<path d="M613.24 161.667L661.286 113.62L676.068 128.401L628.021 176.448L613.24 161.667Z" fill="black"/>
<path d="M680.213 316.587H748.161V337.493H680.213V316.587Z" fill="black"/>
<path d="M613.533 492.12L628.314 477.339L676.361 525.385L661.579 540.167L613.533 492.12Z" fill="black"/>
<path d="M256.986 128.697L271.768 113.916L319.814 161.963L305.033 176.744L256.986 128.697Z" fill="black"/>
<path d="M185.173 316.587H253.121V337.493H185.173V316.587Z" fill="black"/>
<path d="M257.279 525.667L305.326 477.62L320.107 492.401L272.061 540.448L257.279 525.667Z" fill="black"/>
<path d="M467.412 687.68C497.276 687.68 524.158 666.029 528.642 639.149L406.188 639.144C410.668 666.024 437.548 687.68 467.412 687.68Z" fill="black"/>
<path d="M589.12 206.08C557.016 173.976 513.708 156.053 467.412 156.053C421.865 156.053 378.557 173.975 345.704 206.08C278.506 273.277 278.506 382.293 345.704 448.747C359.892 464.429 379.302 484.585 379.302 503.252H393.49L466.668 503.257H555.522C555.522 484.59 574.934 463.684 589.121 448.752C656.318 382.293 656.318 273.285 589.121 206.085L589.12 206.08ZM466.666 412.16C442.026 412.16 418.136 403.201 399.469 384.535L414.401 369.603C443.521 398.723 490.562 398.723 518.932 369.603L533.864 384.535C515.197 403.196 491.306 412.16 466.666 412.16ZM437.546 330.024C437.546 313.597 450.239 300.904 466.666 300.904C483.094 300.904 495.786 313.597 495.786 330.024C495.786 346.451 483.094 359.144 466.666 359.144C450.239 359.144 437.546 345.707 437.546 330.024ZM518.932 289.707C489.812 260.587 442.77 260.587 414.401 289.707L399.469 274.775C436.802 237.441 497.281 237.441 534.616 274.775L518.932 289.707Z" fill="black"/>
<path d="M379.307 581.653H555.52V618.241H379.307V581.653Z" fill="black"/>
<path d="M379.307 524.16H555.52V560.748H379.307V524.16Z" fill="black"/>
</svg>
