<svg width="934" height="934" viewBox="0 0 934 934" fill="none" xmlns="http://www.w3.org/2000/svg">
<path d="M754.92 365.08L474.92 85.08C470.357 80.5174 462.982 80.5174 458.425 85.08L314.999 228.507V163.335C314.999 156.897 309.769 151.668 303.332 151.668C296.894 151.668 291.665 156.897 291.665 163.335V251.84L178.415 365.091C173.852 369.653 173.852 377.028 178.415 381.585C182.977 386.148 190.352 386.148 194.909 381.585L244.997 331.497V653.337C244.997 659.79 250.226 665.004 256.664 665.004H676.664C683.117 665.004 688.331 659.79 688.331 653.337V331.497L738.413 381.58C740.689 383.856 743.679 385.002 746.663 385.002C749.648 385.002 752.637 383.856 754.913 381.585C759.476 377.023 759.476 369.648 754.913 365.085L754.92 365.08Z" fill="black"/>
</svg>
