<svg width="934" height="934" viewBox="0 0 934 934" fill="none" xmlns="http://www.w3.org/2000/svg">
<path d="M651.093 85.864C646.817 81.9317 641.223 79.7443 635.41 79.7443C629.603 79.7443 624.004 81.9317 619.733 85.864L212.053 492.797C209.147 495.667 207.079 499.282 206.079 503.25L173.23 639.144C171.631 645.795 173.162 652.81 177.381 658.19C181.599 663.571 188.042 666.732 194.881 666.769H200.11L336.003 633.914L335.998 633.919C339.962 632.919 343.576 630.851 346.451 627.945L754.131 220.265C758.235 216.078 760.532 210.447 760.532 204.588C760.532 198.723 758.235 193.093 754.131 188.905L651.093 85.864Z" fill="black"/>
</svg>
