<svg width="147" height="147" viewBox="0 0 147 147" fill="none" xmlns="http://www.w3.org/2000/svg">
<path d="M73.5 2.29688C112.834 2.29688 144.703 34.166 144.703 73.5C144.703 112.834 112.834 144.703 73.5 144.703C34.166 144.703 2.29688 112.834 2.29688 73.5C2.29688 34.166 34.166 2.29688 73.5 2.29688ZM40.1953 86.1328H73.5V106.489C73.5 109.561 77.2324 111.111 79.3857 108.929L112.202 75.9404C113.552 74.591 113.552 72.4377 112.202 71.0883L79.3857 38.0707C77.2037 35.8887 73.5 37.4391 73.5 40.5111V60.8672H40.1953C38.3004 60.8672 36.75 62.4176 36.75 64.3125V82.6875C36.75 84.5824 38.3004 86.1328 40.1953 86.1328Z" fill="black"/>
</svg>
