<svg width="934" height="934" viewBox="0 0 934 934" fill="none" xmlns="http://www.w3.org/2000/svg">
<path fill-rule="evenodd" clip-rule="evenodd" d="M294.253 313.947C282.003 322.244 280.723 321.551 263.451 336.348C251.992 364.036 262.18 402.181 277.451 420.348C319.825 459.468 387.372 430.135 386.648 372.749C386.096 328.624 343.591 308.443 294.252 313.947H294.253ZM353.056 397.947C344.238 402.192 336.253 407.28 325.056 409.145C311.067 398.598 313.389 387.77 302.655 372.743C301.347 345.093 329.035 345.213 353.056 350.342C361.384 363.566 358.363 383.597 353.056 397.947Z" fill="black"/>
<path fill-rule="evenodd" clip-rule="evenodd" d="M434.253 313.947C422.003 322.244 420.723 321.551 403.451 336.348C391.992 364.036 402.18 402.181 417.451 420.348C459.825 459.468 527.388 430.135 526.648 372.749C526.096 328.624 483.58 308.443 434.252 313.947H434.253ZM493.056 397.947C484.238 402.192 476.253 407.28 465.056 409.145C451.067 398.598 453.389 387.77 442.655 372.743C441.347 345.093 469.035 345.213 493.056 350.342C501.384 363.566 498.363 383.597 493.056 397.947Z" fill="black"/>
<path fill-rule="evenodd" clip-rule="evenodd" d="M574.254 313.947C562.004 322.244 560.723 321.551 543.442 336.348C531.983 364.036 542.181 402.181 557.442 420.348C599.816 459.468 667.379 430.135 666.639 372.749C666.097 328.624 623.582 308.443 574.254 313.947ZM633.056 397.947C624.239 402.192 616.254 407.28 605.056 409.145C591.067 398.598 593.39 387.77 582.655 372.743C581.358 345.093 609.035 345.213 633.056 350.342C641.385 363.566 638.364 383.597 633.056 397.947Z" fill="black"/>
<path fill-rule="evenodd" clip-rule="evenodd" d="M420.24 81.552C386.36 84.5156 354.683 92.0884 319.438 112.355C316.698 107.829 311.969 105.917 308.24 109.553C292.969 119.808 274.276 143.386 241.042 148.75C228.548 185.047 220.006 158.141 204.641 204.75C199.344 202.651 202.693 196.396 196.24 201.948C173.933 234.322 139.704 295.13 148.641 344.748C143.344 342.649 146.693 336.394 140.24 341.946V392.347C153.402 464.472 175.495 517.612 213.043 560.347C216.814 599.102 208.355 639.878 218.642 666.748C229.303 677.852 244.669 663.587 252.241 675.149H257.839C334.631 669.983 414.133 671.629 484.626 669.55C546.189 667.743 586.943 649.357 635.839 621.952C658.522 609.249 665.334 598.806 683.427 582.764C692.047 575.123 703.949 571.41 711.427 563.154C749.411 521.269 785.162 451.316 784.23 375.554C781.991 193.354 624.657 63.6744 420.243 81.5544L420.24 81.552ZM437.043 638.752C403.616 637.622 370.204 635.299 333.444 638.752C324.658 640.07 326.048 631.216 319.444 630.351C315.09 643.242 280.69 628.684 266.247 638.752C281.392 621.903 248.05 643.242 252.247 619.153C255.294 619.841 254.148 624.716 257.846 624.742C251.205 608.586 261.382 603.335 249.445 588.341C277.377 549.737 236.554 525.294 218.642 498.742C218.153 498.028 222.621 493.2 221.444 490.341C215.913 476.903 197.34 474.231 196.247 462.341C198.497 463.82 200.799 465.268 204.648 465.143C158.544 357.903 201.778 237.17 277.451 176.743C286.669 169.394 303.492 168.509 305.451 154.342C330.372 147.539 352.981 138.404 369.852 123.539C407.701 123.898 448.112 106.586 484.639 109.539C491.883 110.122 496.326 116.284 504.248 117.94C544.904 126.456 581.868 128.601 619.051 145.94C695.244 199.06 774.557 274.987 756.251 406.34C735.163 557.66 603.104 644.34 437.051 638.753L437.043 638.752Z" fill="black"/>
</svg>
