<?xml version="1.0" encoding="UTF-8"?>
<svg width="700pt" height="700pt" version="1.1" viewBox="0 0 700 700" xmlns="http://www.w3.org/2000/svg">
 <g>
  <path d="m183.89 211.52c3.0586 5.3203 8.2852 8.8672 14.141 10.125l-21.047 288.98c-0.32812 4.5742 0.86328 9.2383 3.3359 13.043 3.4531 5.4375 23.332 32.621 73.219 32.621v-18.664c-40.996 0-55.906-21.535-57.891-25.645l21.094-289.73h73.711l20.535 291.71c-0.83984 0.95703-20.695 23.637-57.352 23.637l-0.11719 9.332 0.16406 9.332c45.195 0 70.441-28.957 71.492-30.215 3.6641-4.3164 5.4609-9.8008 5.0859-15.445l-21.094-288.94c5.9023-1.2383 11.152-4.8281 14.211-10.148l51.191-88.691c3.7578-6.625 3.7578-14.816-0.023437-21.398l-51.148-88.551c-0.88672-1.6094-2.0547-3.1484-3.7344-4.8086-8.1172-8.0703-22.188-8.0703-30.309 0.027344-5.1562 5.1328-7.3242 12.48-6.0195 17.664v47.691l-16.637 28.398h-26.227l-16.637-28.375v-49.957c0-9.6836-6.5352-18.199-15.867-20.695-9.1445-2.5195-19.32 1.7031-24.125 9.9609l-51.195 88.691c-3.7578 6.6016-3.7344 14.816 0.046874 21.398zm16.145-189.39c0.46484-0.79297 1.2617-1.3086 2.6836-1.3086 0.14062 0 0.28125 0 0.42188 0.023438 1.2383 0.32812 2.0312 1.3984 2.0312 2.6602v52.5c0 1.6562 0.46484 3.2891 1.3086 4.7148l20.625 35.164c1.6328 2.8906 4.6875 4.6406 8.0234 4.6406l36.938 0.023437c3.3125 0 6.3711-1.75 8.0508-4.6211l20.625-35.211c0.83984-1.4453 1.3086-3.0586 1.3086-4.7148l-0.23438-52.168c-0.21094-0.91016 0.070313-1.8672 2.6836-3.3594l2.6602 1.6328 51.191 88.645c0.48828 0.86328 0.48828 1.9375 0 2.7773l-51.172 88.668c-0.48828 0.86328-1.3984 1.375-2.4023 1.375l-102.36-0.027344c-0.98047 0-1.8906-0.48828-2.3789-1.375l-51.172-88.598c-0.49219-0.88672-0.49219-1.9375-0.023438-2.7773z"/>
  <path d="m409.41 255.94c-3.5234 3.5469-5.4844 8.2617-5.4844 13.207v30.965c0 10.289 8.3984 18.691 18.715 18.691h18.457v103.3l-15.328 10.523c-6.1836 4.1055-9.2852 11.504-7.957 18.969l17.125 91.328c1.6562 8.8203 9.3789 15.238 18.387 15.238l61.344-0.046875c8.9844 0 16.707-6.3945 18.387-15.215l17.125-91.352c1.3281-7.3047-1.75-14.676-7.8164-18.785l-14.723-10.148v-103.79h21.047 0.09375c4.8984-0.046875 9.6836-2.0547 13.137-5.5312 3.5234-3.5469 5.4609-8.2617 5.4609-13.184v-31.035c-0.046875-4.9688-2.0078-9.6367-5.4844-13.137-2.8242-2.8008-6.3711-4.6211-10.219-5.25 11.551-10.312 18.457-25.41 18.434-41.043l-0.003907-152.67c0.023438-14.699-5.7148-28.559-16.172-39.012-10.43-10.406-24.266-16.148-38.965-16.148h-61.973c-14.699 0-28.559 5.7383-38.988 16.172-10.43 10.453-16.191 24.289-16.191 38.965v152.71c0.023438 16.008 7.2109 31.289 19.156 41.648-2.8242 0.91406-5.4609 2.5-7.5625 4.6211zm122.43 192.22-17.148 91.281-61.344 0.046876v9.332l-0.023438-9.332-17.102-91.375 19.531-13.418c2.5195-1.75 4.0586-4.6211 4.0586-7.6992l0.046875-108.15h49.141v108.69c0 3.0781 1.5156 5.9492 4.0586 7.6758zm-115.31-238.52v-152.69c0-9.6836 3.8047-18.852 10.734-25.762 6.9062-6.8828 16.074-10.684 25.781-10.684h61.973c9.707 0 18.875 3.7812 25.762 10.688 6.9297 6.9062 10.711 16.055 10.688 25.762v152.71c0.023437 12.156-6.3008 23.801-16.473 30.379-2.6602 1.7266-4.293 4.668-4.293 7.8633l0.023438 11.898c0.023438 5.1562 4.1992 9.3086 9.332 9.3086l8.6562 0.046875v30.965c-0.023437 0.023437-0.070312 0.023437-0.09375 0.023437l-126.02-0.046875 0.023437-30.988h6.3711c5.1562 0 9.332-4.1992 9.332-9.332v-11.176c0-3.2422-1.6797-6.2539-4.4336-7.957-10.688-6.582-17.359-18.48-17.359-31.012z"/>
  <path d="m452.04 222.53c5.1562 0 9.332-4.1992 9.332-9.332l0.003906-155.38c0-5.1562-4.1992-9.332-9.332-9.332-5.1328 0-9.332 4.1992-9.332 9.332v155.35c-0.027343 5.1562 4.1719 9.3594 9.3281 9.3594z"/>
  <path d="m515.97 222.53c5.1562 0 9.332-4.1992 9.332-9.332l0.003907-155.38c0-5.1562-4.1992-9.332-9.332-9.332-5.1328 0-9.332 4.1992-9.332 9.332v155.35c-0.027344 5.1562 4.1719 9.3594 9.3281 9.3594z"/>
 </g>
</svg>
