<svg width="934" height="934" viewBox="0 0 934 934" fill="none" xmlns="http://www.w3.org/2000/svg">
<path d="M372.96 329.8V328.904C373.147 321.128 376.46 313.759 382.153 308.456C387.845 303.154 395.434 300.368 403.199 300.732C410.97 301.097 418.267 304.576 423.434 310.388C424.59 309.17 425.84 308.05 427.168 307.029C427.351 305.612 427.653 304.211 428.064 302.847C420.132 300.701 413.319 295.597 409.028 288.587C405.367 282.181 404.283 274.623 406.002 267.447C407.726 260.275 412.117 254.031 418.283 249.983C419.143 249.056 420.221 248.363 421.419 247.967L451.736 230.347L431.053 218.399L407.532 204.811C403.975 202.759 402.74 198.223 404.766 194.655C405.756 192.926 407.386 191.666 409.308 191.145C411.23 190.624 413.277 190.895 414.996 191.895L438.517 205.483C445.22 209.004 453.512 206.603 457.298 200.05C461.085 193.493 459.027 185.118 452.632 181.066L396.632 148.738V148.733C375.476 136.442 349.569 135.572 327.637 146.421L296.574 161.801H296.579C294.382 162.967 291.751 162.967 289.559 161.801L258.72 143.957L230.351 193.383L201.752 242.962L232.591 260.733C233.585 261.326 234.429 262.144 235.054 263.123L251.257 287.539C257.512 296.966 265.872 304.81 275.673 310.461L372.741 366.611L372.96 329.8Z" fill="black"/>
<path d="M153.587 240L232.358 103.56L256.8 117.675L178.03 254.115L153.587 240Z" fill="black"/>
<path d="M674.307 144.027L643.469 161.871H643.474C642.474 162.464 641.344 162.798 640.187 162.845L610.994 164.636H610.989C599.682 165.35 588.697 168.673 578.885 174.345L427.245 261.929C420.521 265.798 418.187 274.371 422.016 281.117C425.443 286.908 432.323 289.69 438.818 287.914L441.355 286.273L506.016 248.94V248.934C509.563 247.08 513.938 248.351 515.943 251.815C517.943 255.278 516.86 259.705 513.485 261.851L446.881 300.528H446.506C454.287 300.94 461.563 304.497 466.667 310.388C472.157 304.247 480.011 300.742 488.246 300.752C491.725 300.757 495.168 301.414 498.402 302.695L529.61 284.326C533.1 282.753 537.219 284.07 539.141 287.378C541.068 290.69 540.172 294.919 537.079 297.169L530.881 300.826H531.256V300.831C538.943 300.852 546.313 303.919 551.745 309.362C557.172 314.81 560.224 322.185 560.224 329.873V367.206L580.61 355.409L604.131 341.821C605.845 340.733 607.933 340.389 609.912 340.873C611.886 341.358 613.579 342.623 614.6 344.389C615.615 346.149 615.87 348.248 615.303 350.201C614.74 352.16 613.396 353.795 611.594 354.738L588.225 368.102C581.491 372.003 579.184 380.623 583.074 387.367C584.928 390.628 588.027 392.997 591.657 393.94C595.262 394.945 599.121 394.435 602.34 392.518L658.34 360.19C679.569 348.013 693.282 326.002 694.85 301.576L697.017 267.081C697.158 264.565 698.564 262.289 700.746 261.034L731.585 243.263L702.986 193.685L674.307 144.027Z" fill="black"/>
<path d="M676.507 117.932L700.949 103.817L779.72 240.257L755.278 254.372L676.507 117.932Z" fill="black"/>
<path d="M531.4 315.693C524.687 315.771 518.853 320.324 517.14 326.818V329.803V407.532C517.14 409.511 516.354 411.412 514.953 412.813C513.552 414.209 511.656 414.996 509.677 414.996C505.552 414.996 502.208 411.657 502.208 407.532V327.412C501.557 323.547 499.307 320.131 496.01 318.006L495.042 317.485C493.005 316.271 490.687 315.626 488.318 315.615C484.552 315.594 480.932 317.084 478.265 319.751C475.604 322.412 474.114 326.037 474.135 329.803V408.803C474.135 412.923 470.791 416.266 466.666 416.266C462.541 416.266 459.197 412.923 459.197 408.803V329.803C459.197 322.011 452.88 315.693 445.088 315.693C442.718 315.699 440.401 316.345 438.369 317.558C438.041 317.777 437.692 317.954 437.322 318.079C433.348 320.652 430.953 325.068 430.974 329.803V404.47C430.974 408.595 427.635 411.938 423.51 411.938C419.385 411.938 416.041 408.595 416.041 404.47V329.803C416.328 325.891 414.973 322.042 412.302 319.167C409.635 316.298 405.89 314.667 401.968 314.667C398.046 314.667 394.302 316.298 391.635 319.167C388.963 322.042 387.609 325.891 387.895 329.803V443.298C387.895 447.423 384.552 450.761 380.426 450.761C376.301 450.761 372.958 447.423 372.958 443.298V416.12C372.958 408.323 366.64 402.005 358.848 402.005C351.051 402.005 344.734 408.323 344.734 416.12V480.781C344.666 505.213 356.791 528.068 377.067 541.708L405.89 560.896H405.884C407.973 562.271 409.233 564.594 409.249 567.094V602.709H523.937V567.469C523.953 566.307 524.208 565.167 524.682 564.104L537.75 537.599C542.729 527.448 545.286 516.276 545.213 504.968V329.795C545.218 322.118 539.078 315.847 531.401 315.685L531.4 315.693Z" fill="black"/>
<path d="M401.933 617.64H387.897V645.864H545.444V617.64H401.933Z" fill="black"/>
</svg>
